HIERARCHY
ROOT Hips
{
	OFFSET 0.000000 0.000000 0.000000
	CHANNELS 6 Xposition Yposition Zposition Xrotation Yrotation Zrotation
	JOINT LeftUpLeg_virtual
	{
		OFFSET 0.000000 0.000000 0.000000
		CHANNELS 3 Xrotation Yrotation Zrotation
		JOINT LeftUpLeg
		{
			OFFSET 10.205400 -3.823500 0.155100
			CHANNELS 3 Xrotation Yrotation Zrotation
			JOINT LeftLeg
			{
				OFFSET 0.708757 -12.982077 0.567790
				CHANNELS 3 Xrotation Yrotation Zrotation
				JOINT LeftFoot
				{
					OFFSET -0.708756 -10.717838 -2.184338
					CHANNELS 3 Xrotation Yrotation Zrotation
					JOINT LeftToeBase
					{
						OFFSET 0.108149 -7.191104 7.560241
						CHANNELS 3 Xrotation Yrotation Zrotation
						JOINT LeftToe_End
						{
							OFFSET 0.070230 0.081724 4.490308
							CHANNELS 3 Xrotation Yrotation Zrotation
							End Site
							{
								OFFSET 0 0 0
							}
						}
					}
				}
			}
		}
	}
	JOINT RightUpLeg_virtual
	{
		OFFSET 0.000000 0.000000 0.000000
		CHANNELS 3 Xrotation Yrotation Zrotation
		JOINT RightUpLeg
		{
			OFFSET -10.205400 -3.823500 0.005500
			CHANNELS 3 Xrotation Yrotation Zrotation
			JOINT RightLeg
			{
				OFFSET -0.708756 -12.982134 0.610632
				CHANNELS 3 Xrotation Yrotation Zrotation
				JOINT RightFoot
				{
					OFFSET 0.708754 -10.717769 -1.945823
					CHANNELS 3 Xrotation Yrotation Zrotation
					JOINT RightToeBase
					{
						OFFSET -0.108140 -7.191069 7.372968
						CHANNELS 3 Xrotation Yrotation Zrotation
						JOINT RightToe_End
						{
							OFFSET -0.070227 0.081735 4.479403
							CHANNELS 3 Xrotation Yrotation Zrotation
							End Site
							{
								OFFSET 0 0 0
							}
						}
					}
				}
			}
		}
	}
	JOINT Spine_virtual
	{
		OFFSET 0.000000 0.000000 0.000000
		CHANNELS 3 Xrotation Yrotation Zrotation
		JOINT Spine
		{
			OFFSET 0.000000 6.876099 0.125700
			CHANNELS 3 Xrotation Yrotation Zrotation
			JOINT Spine1
			{
				OFFSET 0.000000 5.730043 0.104720
				CHANNELS 3 Xrotation Yrotation Zrotation
				JOINT Spine1_split
				{
					OFFSET 0.000000 5.730043 0.104720
					CHANNELS 3 Xrotation Yrotation Zrotation
					JOINT Spine2
					{
						OFFSET 0.000000 5.730043 0.104720
						CHANNELS 3 Xrotation Yrotation Zrotation
						JOINT Neck_virtual
						{
							OFFSET 0.000000 0.000000 0.000000
							CHANNELS 3 Xrotation Yrotation Zrotation
							JOINT Neck
							{
								OFFSET 0.000000 10.314075 0.188496
								CHANNELS 3 Xrotation Yrotation Zrotation
								JOINT Head
								{
									OFFSET 0.000000 7.643700 -2.377400
									CHANNELS 3 Xrotation Yrotation Zrotation
									JOINT HeadTop_End
									{
										OFFSET 0.000000 43.788605 -13.619600
										CHANNELS 3 Xrotation Yrotation Zrotation
										End Site
										{
											OFFSET 0 0 0
										}
									}
								}
							}
						}
						JOINT LeftShoulder_virtual
						{
							OFFSET 0.000000 0.000000 0.000000
							CHANNELS 3 Xrotation Yrotation Zrotation
							JOINT LeftShoulder
							{
								OFFSET 2.196100 4.412489 0.087492
								CHANNELS 3 Xrotation Yrotation Zrotation
								JOINT LeftShoulder_split
								{
									OFFSET 2.196100 4.412489 0.087492
									CHANNELS 3 Xrotation Yrotation Zrotation
									JOINT LeftArm
									{
										OFFSET 8.771219 -2.981674 -0.026999
										CHANNELS 3 Xrotation Yrotation Zrotation
										JOINT LeftForeArm
										{
											OFFSET 8.512804 0.000000 -0.000000
											CHANNELS 3 Xrotation Yrotation Zrotation
											JOINT LeftHand
											{
												OFFSET 18.484802 0.000000 -0.000000
												CHANNELS 3 Xrotation Yrotation Zrotation
												End Site
												{
													OFFSET 0 0 0
												}
											}
										}
									}
								}
							}
						}
						JOINT RightShoulder_virtual
						{
							OFFSET 0.000000 0.000000 0.000000
							CHANNELS 3 Xrotation Yrotation Zrotation
							JOINT RightShoulder
							{
								OFFSET -2.196100 4.412496 0.070690
								CHANNELS 3 Xrotation Yrotation Zrotation
								JOINT RightShoulder_split
								{
									OFFSET -2.196100 4.412496 0.070690
									CHANNELS 3 Xrotation Yrotation Zrotation
									JOINT RightArm
									{
										OFFSET -8.771282 -2.981682 -0.094208
										CHANNELS 3 Xrotation Yrotation Zrotation
										JOINT RightForeArm
										{
											OFFSET -8.494598 0.000000 0.000000
											CHANNELS 3 Xrotation Yrotation Zrotation
											JOINT RightHand
											{
												OFFSET -18.483803 0.000000 0.000001
												CHANNELS 3 Xrotation Yrotation Zrotation
												End Site
												{
													OFFSET 0 0 0
												}
											}
										}
									}
								}
							}
						}
					}
				}
			}
		}
	}
}
MOTION
Frames: 9
Frame Time: 0.03333333
-0.075640 32.865543 -19.273619 0.000000 0.000000 0.000000 174.941690 -67.648857 178.629596 -27.619514 10.275559 17.162068 40.357324 -0.777100 -2.437473 -8.401823 -2.436867 -0.245246 0.807057 6.228822 -8.194672 0.000000 0.000000 0.000000 174.056006 -66.269815 177.817582 -4.804921 -11.410153 6.948377 15.461711 9.015796 -1.090756 -16.365808 2.740769 -8.079428 0.216105 -7.512189 -0.520626 0.000000 0.000000 0.000000 172.604672 -67.379680 175.110792 4.436438 1.628533 3.133574 -3.431013 1.390240 -2.317271 0.643274 -1.339232 0.137780 0.000000 0.000000 0.000000 -5.124171 1.609163 -1.968818 1.387838 19.389314 8.103953 4.724132 26.590019 -14.871834 0.000000 0.000000 0.000000 -5.464829 2.190333 -2.221474 0.850105 0.825485 1.458119 -0.196044 -0.764109 -0.628163 12.291580 0.663446 -67.352372 7.670869 -21.367801 -7.995748 0.000000 0.000000 0.000000 -4.549078 1.869294 -2.687189 2.748050 -5.558233 17.920818 -6.295750 -1.355853 -0.873681 11.451565 32.949495 53.619871 15.236115 29.935732 -1.185692 0.000000 0.000000 0.000000 
-0.510817 33.000820 -19.982786 0.000000 0.000000 0.000000 174.423839 -61.993570 177.933764 -29.528486 3.213430 12.043613 39.655132 -0.239464 -1.354277 -5.942585 -1.943121 -0.585171 -0.227910 6.932098 -8.562938 0.000000 0.000000 0.000000 173.774902 -60.152028 177.493203 -4.386343 -9.097012 8.773810 15.169094 12.267089 -0.065490 -15.678254 2.895867 -10.512197 -0.345074 -7.279089 -0.810293 0.000000 0.000000 0.000000 173.172930 -61.537108 175.341515 4.801007 2.143881 2.895632 -3.348342 1.860897 -2.407415 0.677760 -1.133484 0.263826 0.000000 0.000000 0.000000 -5.052641 2.038557 -2.119275 1.178731 17.626898 8.110311 3.955145 24.150277 -13.702550 0.000000 0.000000 0.000000 -5.478915 2.634383 -2.295868 0.762080 0.734283 1.832168 0.035000 -0.881270 -0.579674 13.379978 1.426132 -68.859986 8.747971 -20.350820 -8.063884 0.000000 0.000000 0.000000 -4.484306 2.287681 -2.821476 2.782043 -5.950402 18.061957 -6.134373 -1.503720 -0.691063 10.381264 34.993313 53.779482 15.474683 29.135388 -1.612434 0.000000 0.000000 0.000000 
-1.008345 33.089584 -20.769854 0.000000 0.000000 0.000000 174.018972 -56.237295 177.284759 -32.149663 -2.860066 7.351546 37.409380 -0.255351 -0.212036 -3.345627 -1.576217 -2.224201 -1.683185 7.581010 -8.900603 0.000000 0.000000 0.000000 173.840404 -53.971031 177.547352 -3.815354 -6.971122 10.595994 15.822821 15.156661 0.944575 -15.177374 2.980172 -13.239237 -0.385674 -6.978144 -0.984968 0.000000 0.000000 0.000000 173.774247 -55.660140 175.623384 5.119405 2.616105 2.467429 -3.148440 2.232318 -2.286594 0.740722 -0.771838 0.311527 0.000000 0.000000 0.000000 -4.851500 2.391955 -2.074204 1.093705 15.587455 7.657786 2.794278 20.850457 -11.927212 0.000000 0.000000 0.000000 -5.377133 2.992607 -2.142575 0.671826 0.610523 2.104314 0.306128 -1.073753 -0.613378 14.232364 1.895027 -70.328457 9.530520 -18.506746 -8.264198 0.000000 0.000000 0.000000 -4.324483 2.610616 -2.731940 2.825239 -6.363322 17.987296 -5.905860 -1.600307 -0.447643 9.112984 37.265901 54.236780 15.524622 28.010199 -2.006445 0.000000 0.000000 0.000000 
-1.549453 33.075459 -21.598558 0.000000 0.000000 0.000000 173.963060 -50.367232 177.027807 -35.382064 -7.544359 3.585174 34.166389 -0.905192 0.781974 0.049493 -1.480802 -5.061517 -2.633582 8.100640 -9.398497 0.000000 0.000000 0.000000 174.132326 -47.855737 177.790015 -3.283906 -5.096058 12.352658 17.514497 17.884763 1.701346 -14.329061 2.990201 -15.720790 -0.818593 -6.611702 -1.326975 0.000000 0.000000 0.000000 174.479095 -49.987419 176.104994 5.436517 3.027450 1.924886 -2.842945 2.486544 -1.984990 0.922096 -0.314197 0.249889 0.000000 0.000000 0.000000 -4.526314 2.649643 -1.855474 1.196125 13.313575 6.792832 1.451499 16.841968 -9.761493 0.000000 0.000000 0.000000 -5.158772 3.255043 -1.800852 0.586931 0.536714 2.237975 0.647532 -1.400115 -0.694861 14.945974 2.202141 -71.581045 9.953326 -16.389645 -8.571969 0.000000 0.000000 0.000000 -4.072641 2.826772 -2.457151 2.877955 -6.778358 17.650843 -5.571594 -1.609530 -0.132408 7.754510 39.578911 55.016006 15.422393 26.883958 -2.403811 0.000000 0.000000 0.000000 
-2.085812 32.964615 -22.553030 0.000000 0.000000 0.000000 174.155959 -44.555578 177.058584 -39.165623 -10.706913 0.857522 30.614834 -1.898168 1.397023 4.789047 -1.567783 -8.594136 -2.185373 8.395259 -10.228750 0.000000 0.000000 0.000000 174.544610 -42.022076 177.991547 -2.788052 -3.517422 13.927339 19.518157 20.558888 2.118268 -12.985178 3.120215 -17.502816 -1.887765 -6.081021 -1.945007 0.000000 0.000000 0.000000 175.200144 -44.557303 176.678115 5.786534 3.371156 1.393392 -2.457035 2.630412 -1.578158 0.917669 0.307494 0.182147 0.000000 0.000000 0.000000 -4.128407 2.801656 -1.520561 1.437408 10.857700 5.671455 0.171573 12.391475 -7.447923 0.000000 0.000000 0.000000 -4.830880 3.427111 -1.354389 0.519535 0.577850 2.199169 1.027880 -1.892281 -0.799131 15.652401 2.443216 -72.482637 10.074681 -14.629464 -8.915238 0.000000 0.000000 0.000000 -3.735398 2.940766 -2.075128 2.944035 -7.172866 17.076574 -5.095445 -1.502668 0.173489 6.486013 41.744849 56.012728 15.214168 26.049324 -2.847880 0.000000 0.000000 0.000000 
-2.548513 32.794701 -23.626375 0.000000 0.000000 0.000000 174.447252 -39.021117 177.165313 -42.960117 -12.558980 -1.068820 26.915875 -2.877681 1.658510 10.338828 -1.758317 -12.224500 -0.506034 8.425857 -11.223447 0.000000 0.000000 0.000000 174.880519 -36.701065 177.898998 -2.023497 -2.247631 15.242954 20.778976 23.096642 2.283659 -11.462776 3.677796 -18.918080 -3.298376 -5.279614 -2.608402 0.000000 0.000000 0.000000 175.828890 -39.474826 177.203930 6.203237 3.629672 0.977139 -2.013252 2.678536 -1.153327 0.679246 0.782691 0.065888 0.000000 0.000000 0.000000 -3.704433 2.855367 -1.156012 1.777985 8.351213 4.463457 -0.880276 7.770243 -5.167669 0.000000 0.000000 0.000000 -4.432499 3.506501 -0.909141 0.467927 0.761686 1.976861 1.502708 -2.465980 -0.834081 16.414744 2.726790 -72.974998 10.005851 -13.650346 -9.209616 0.000000 0.000000 0.000000 -3.364758 2.962806 -1.684108 2.989517 -7.511069 16.328148 -4.502666 -1.261698 0.529653 5.425535 43.636583 57.071165 14.935573 25.633678 -3.337585 0.000000 0.000000 0.000000 
-2.893615 32.616650 -24.840891 0.000000 0.000000 0.000000 174.729708 -33.990669 177.268571 -46.092422 -13.217005 -2.360740 23.137056 -3.505844 1.648336 15.447388 -1.924775 -15.026947 1.078389 8.263278 -11.921194 0.000000 0.000000 0.000000 175.078840 -31.816503 177.546970 -0.752193 -1.393276 16.115312 21.012025 25.400823 2.328465 -10.247891 4.758393 -20.633931 -4.264726 -4.188817 -3.040417 0.000000 0.000000 0.000000 176.266487 -34.771407 177.533350 6.679875 3.777937 0.670081 -1.556666 2.639657 -0.805272 0.431775 0.938913 -0.105367 0.000000 0.000000 0.000000 -3.288797 2.825914 -0.838203 2.139662 5.920253 3.341021 -1.618643 3.325882 -3.076145 0.000000 0.000000 0.000000 -4.012734 3.508252 -0.555959 0.434491 1.005643 1.607791 2.055732 -2.967642 -0.841115 17.160623 3.052491 -73.084786 9.878779 -13.445008 -9.405847 0.000000 0.000000 0.000000 -3.006526 2.913244 -1.364345 2.989180 -7.765709 15.538084 -3.851257 -0.933017 0.915735 4.714515 45.189645 58.005368 14.650728 25.683255 -3.890947 0.000000 0.000000 0.000000 
-3.098318 32.479710 -26.130350 0.000000 0.000000 0.000000 174.831355 -29.535831 177.181459 -48.070578 -13.038568 -3.428927 19.230773 -3.690735 1.525768 18.766351 -1.781601 -16.386013 1.407446 8.008560 -12.029882 0.000000 0.000000 0.000000 175.061041 -27.429838 176.986252 0.973015 -0.916152 16.240223 20.395064 27.466315 2.522659 -9.046519 6.056677 -22.358220 -4.767020 -2.874013 -3.034916 0.000000 0.000000 0.000000 176.440083 -30.459638 177.561873 7.167671 3.811007 0.444508 -1.122196 2.543919 -0.580760 0.186806 0.790734 -0.104723 0.000000 0.000000 0.000000 -2.934322 2.735425 -0.616183 2.446409 3.694979 2.418204 -2.035533 -0.661202 -1.275053 0.000000 0.000000 0.000000 -3.591430 3.440508 -0.344940 0.424770 1.221231 1.147084 2.622590 -3.323281 -0.809926 17.841733 3.354684 -72.885884 9.797462 -13.677794 -9.489782 0.000000 0.000000 0.000000 -2.689523 2.812255 -1.151883 2.922983 -7.908509 14.832847 -3.152181 -0.531766 1.392012 4.504747 46.474240 58.636081 14.412363 26.175749 -4.500777 0.000000 0.000000 0.000000 
-3.215732 32.384377 -27.416090 0.000000 0.000000 0.000000 174.715665 -25.666960 176.900588 -48.765488 -12.500432 -4.494264 15.646387 -3.653564 1.458251 19.682134 -1.294126 -16.134242 0.460573 7.695906 -11.693231 0.000000 0.000000 0.000000 174.826260 -23.473286 176.443184 2.862750 -0.624718 15.802857 19.616348 29.606818 2.785495 -7.656407 7.249150 -23.327323 -5.618183 -1.590081 -2.524170 0.000000 0.000000 0.000000 176.374103 -26.649177 177.419532 7.565345 3.739435 0.208897 -0.748802 2.412946 -0.470416 0.087902 0.406812 -0.124617 0.000000 0.000000 0.000000 -2.663174 2.598404 -0.496616 2.648663 1.759015 1.747038 -2.225060 -3.978085 0.158660 0.000000 0.000000 0.000000 -3.215684 3.309899 -0.255372 0.439430 1.355189 0.688057 3.110057 -3.522757 -0.766612 18.278848 3.569618 -72.461996 9.812630 -13.934714 -9.462622 0.000000 0.000000 0.000000 -2.444671 2.677132 -1.032765 2.792570 -7.927084 14.301231 -2.504967 -0.057822 1.903222 4.906796 47.514262 58.844791 14.274242 27.106477 -5.145973 0.000000 0.000000 0.000000 
